<?xml version="1.0" standalone="no"?>
<!DOCTYPE svg PUBLIC "-//W3C//DTD SVG 20010904//EN"
 "http://www.w3.org/TR/2001/REC-SVG-20010904/DTD/svg10.dtd">
<svg version="1.0" xmlns="http://www.w3.org/2000/svg"
 width="791.000000pt" height="1024.000000pt" viewBox="0 0 791.000000 1024.000000"
 preserveAspectRatio="xMidYMid meet">
<metadata>
Created by potrace 1.15, written by Peter Selinger 2001-2017
</metadata>
<g transform="translate(0.000000,1024.000000) scale(0.100000,-0.100000)"
fill="#000000" stroke="none">
<path d="M1457 8623 c-2 -5 -2 -14 -1 -20 1 -7 2 -290 3 -628 l1 -615 1556 0
1556 0 -19 -24 c-442 -569 -798 -1139 -1103 -1761 -610 -1248 -979 -2615
-1025 -3795 -3 -80 -8 -162 -10 -182 l-5 -38 665 0 665 0 1 103 c5 873 257
2076 646 3092 387 1009 1043 2107 1647 2755 l116 125 0 498 0 497 -2344 0
c-1290 0 -2347 -3 -2349 -7z"/>
</g>
</svg>
