<?xml version="1.0" standalone="no"?>
<!DOCTYPE svg PUBLIC "-//W3C//DTD SVG 20010904//EN"
 "http://www.w3.org/TR/2001/REC-SVG-20010904/DTD/svg10.dtd">
<svg version="1.0" xmlns="http://www.w3.org/2000/svg"
 width="225.000000pt" height="225.000000pt" viewBox="0 0 225.000000 225.000000"
 preserveAspectRatio="xMidYMid meet">
<metadata>
Created by potrace 1.15, written by Peter Selinger 2001-2017
</metadata>
<g transform="translate(0.000000,225.000000) scale(0.100000,-0.100000)"
fill="#000000" stroke="none">
<path d="M463 2105 c-205 -45 -362 -202 -418 -420 -22 -85 -20 -234 5 -328 81
-310 362 -646 933 -1115 138 -114 138 -114 163 -97 58 37 327 260 439 362 332
303 552 610 614 860 25 98 28 252 6 333 -68 255 -299 419 -592 420 -186 0
-352 -95 -454 -260 -33 -54 -44 -61 -54 -31 -11 37 -100 141 -155 182 -64 48
-121 75 -205 95 -74 17 -200 17 -282 -1z m881 -481 c209 -43 422 -154 553
-286 l53 -53 -219 -219 -219 -219 -52 46 c-187 168 -483 168 -670 0 l-52 -46
-219 219 -219 219 53 53 c101 102 277 206 432 255 70 22 146 37 250 51 53 7
235 -4 309 -20z"/>
<path d="M1102 1333 c3 -290 4 -298 23 -298 19 0 20 8 23 298 l2 297 -25 0
-25 0 2 -297z"/>
</g>
</svg>
