<?xml version="1.0" standalone="no"?>
<!DOCTYPE svg PUBLIC "-//W3C//DTD SVG 20010904//EN"
 "http://www.w3.org/TR/2001/REC-SVG-20010904/DTD/svg10.dtd">
<svg version="1.0" xmlns="http://www.w3.org/2000/svg"
 width="674.000000pt" height="545.000000pt" viewBox="0 0 674.000000 545.000000"
 preserveAspectRatio="xMidYMid meet">

<g transform="translate(0.000000,545.000000) scale(0.100000,-0.100000)"
fill="#B22222" stroke="none">
<path d="M557 5168 c-30 -30 -27 -62 7 -80 11 -6 86 -15 167 -19 313 -16 422
-81 465 -278 19 -87 33 -626 34 -1266 l0 -489 58 95 c175 286 411 534 688 719
l104 70 0 278 c1 317 13 564 33 637 46 167 125 215 390 234 90 7 123 13 138
26 27 25 24 61 -7 81 -23 16 -63 16 -487 9 -254 -5 -473 -8 -487 -8 -14 0
-262 3 -551 8 l-527 8 -25 -25z"/>
<path d="M4103 5175 c-28 -20 -29 -56 -3 -80 17 -15 46 -20 173 -26 281 -15
391 -67 446 -214 25 -68 39 -214 49 -533 l7 -223 100 -38 c215 -81 473 -210
651 -326 l81 -53 6 172 c4 94 7 284 7 421 1 691 40 764 416 793 66 5 131 15
142 21 32 17 30 66 -4 87 -23 16 -63 16 -487 9 -254 -5 -473 -8 -487 -8 -14 0
-261 3 -550 7 -481 7 -527 7 -547 -9z"/>
<path d="M3334 4041 c8 -13 -15 -19 -39 -11 -62 22 -419 -42 -638 -114 -259
-85 -494 -213 -705 -382 -468 -375 -738 -936 -782 -1628 -11 -183 0 -469 26
-661 26 -193 26 -193 64 -85 37 108 98 247 178 405 286 571 740 1038 1269
1303 372 187 684 271 1108 297 86 5 98 4 85 -8 -8 -7 -51 -22 -95 -31 -235
-53 -650 -263 -969 -492 -440 -315 -818 -704 -1069 -1102 -83 -131 -191 -342
-180 -353 17 -16 371 -32 582 -26 316 9 545 42 832 121 184 50 302 96 495 192
330 162 567 336 860 628 178 179 291 309 544 626 335 419 466 564 594 655 30
22 56 43 56 47 0 11 -158 115 -284 188 -226 130 -539 260 -781 325 -182 48
-422 89 -582 100 -29 2 -57 6 -62 10 -6 3 -25 -2 -43 -11 -27 -14 -31 -14 -20
-2 11 13 4 15 -48 16 -33 0 -58 -3 -55 -8 8 -13 -18 -18 -40 -8 -18 8 -18 8 3
4 12 -2 19 0 16 5 -7 11 -83 9 -90 -3 -3 -4 -10 -8 -15 -8 -6 0 -8 4 -5 8 8
13 -56 7 -84 -8 -23 -12 -24 -12 -11 3 12 15 11 17 -7 17 -11 0 -29 -8 -38
-17 -17 -17 -18 -17 -11 0 5 14 1 17 -29 17 -19 0 -33 -4 -30 -9z m376 -5 c0
-3 -4 -8 -10 -11 -5 -3 -10 -1 -10 4 0 6 5 11 10 11 6 0 10 -2 10 -4z m11 -19
c-10 -9 -11 -8 -5 6 3 10 9 15 12 12 3 -3 0 -11 -7 -18z m-461 -1 c0 -2 -7 -7
-16 -10 -8 -3 -12 -2 -9 4 6 10 25 14 25 6z"/>
<path d="M5521 3085 c-90 -86 -243 -264 -401 -465 -41 -52 -136 -170 -212
-261 l-137 -167 -1 -488 c-2 -951 -27 -1278 -107 -1426 -49 -90 -102 -113
-308 -129 -173 -14 -213 -40 -142 -93 28 -21 35 -21 345 -16 174 3 470 5 657
5 187 0 509 -2 716 -5 311 -4 380 -3 402 9 36 19 44 48 20 72 -15 16 -44 20
-178 28 -200 13 -296 26 -350 50 -88 39 -140 120 -164 257 -30 169 -35 337
-40 1514 l-6 1205 -94 -90z"/>
<path d="M1216 938 c-3 -24 -7 -104 -10 -178 -14 -348 -65 -519 -170 -568 -43
-21 -137 -36 -288 -48 -82 -6 -115 -25 -104 -61 15 -47 30 -48 371 -43 176 3
473 5 660 5 187 0 509 -2 715 -5 350 -5 378 -4 403 13 38 24 44 45 20 68 -16
17 -42 21 -182 29 -194 12 -289 26 -346 50 -88 38 -140 119 -164 256 -14 79
-31 297 -31 390 l0 74 -42 0 c-111 0 -431 22 -597 40 -246 27 -229 29 -235
-22z"/>
</g>
</svg>
