<?xml version="1.0" standalone="no"?>
<!DOCTYPE svg PUBLIC "-//W3C//DTD SVG 20010904//EN"
 "http://www.w3.org/TR/2001/REC-SVG-20010904/DTD/svg10.dtd">
<svg version="1.0" xmlns="http://www.w3.org/2000/svg"
 width="160.000000pt" height="160.000000pt" viewBox="0 0 160.000000 160.000000"
 preserveAspectRatio="xMidYMid meet">
<metadata>
Created by potrace 1.15, written by Peter Selinger 2001-2017
</metadata>
<g transform="translate(0.000000,160.000000) scale(0.100000,-0.100000)"
fill="#000000" stroke="none">
<path d="M687 1489 c-170 -40 -316 -197 -348 -374 -12 -63 -6 -167 12 -241 12
-46 18 -51 37 -32 9 9 15 9 24 0 9 -9 4 -20 -25 -50 -39 -40 -52 -69 -17 -37
20 18 21 18 37 -6 25 -36 230 -239 242 -239 15 0 14 -33 -1 -49 -11 -10 -10
-11 4 -6 14 6 18 -3 24 -54 4 -34 10 -64 14 -66 5 -3 7 -13 5 -23 -1 -9 0 -11
2 -4 6 17 9 16 59 -18 l44 -31 59 42 c58 41 59 43 66 100 7 61 12 67 35 46 8
-6 6 -2 -4 10 -18 22 -19 54 -1 60 6 2 19 -13 30 -33 21 -40 69 -79 85 -69 13
8 120 167 144 212 22 44 21 48 -18 73 l-35 21 17 29 c20 35 26 36 52 10 11
-11 20 -17 20 -13 0 4 -18 25 -40 48 -29 30 -37 44 -30 55 7 12 12 12 22 2 21
-21 26 -14 44 66 26 115 24 272 -5 337 -38 87 -132 164 -199 165 -13 0 -36 13
-52 29 -16 15 -49 33 -74 40 -52 13 -174 13 -229 0z m318 -352 c15 -23 46 -66
68 -95 48 -63 56 -112 33 -200 -77 -302 -333 -408 -510 -212 -54 61 -77 102
-100 179 -19 65 -21 115 -3 129 6 5 41 22 77 37 50 20 75 25 108 20 33 -5 42
-3 42 9 0 8 -5 16 -12 18 -6 2 11 17 38 33 27 16 84 52 128 81 43 29 84 50 91
47 8 -2 26 -23 40 -46z m-124 -756 c27 -22 22 -31 -42 -82 l-39 -31 -50 39
c-27 21 -49 43 -50 50 -1 42 136 61 181 24z"/>
<path d="M560 948 c-37 -19 -46 -29 -48 -53 l-3 -30 18 21 c10 12 28 27 40 33
21 11 21 10 6 -20 -14 -29 -14 -33 4 -57 28 -38 81 -38 102 0 13 22 14 33 4
59 l-12 32 26 -24 26 -24 -12 23 c-13 25 -67 62 -91 62 -9 0 -36 -10 -60 -22z"/>
<path d="M933 950 c-17 -10 -37 -29 -44 -42 -11 -22 -11 -22 7 -7 36 30 44 31
30 4 -38 -73 64 -134 104 -63 12 22 12 33 3 58 l-11 30 29 -21 c16 -11 29 -28
30 -37 0 -12 3 -9 10 7 12 30 -2 48 -56 72 -51 23 -63 23 -102 -1z"/>
<path d="M708 653 c-16 -2 -28 -8 -28 -13 0 -21 55 -71 90 -81 32 -10 44 -9
76 7 38 19 83 69 71 80 -7 8 -172 13 -209 7z"/>
<path d="M290 694 c0 -26 155 -263 223 -341 17 -20 32 -42 33 -50 2 -15 40
-61 74 -90 24 -21 112 -63 132 -63 10 0 18 -7 18 -15 0 -18 -12 -19 -28 -3
-16 16 -16 -17 -1 -61 8 -23 17 -31 35 -31 23 0 24 3 24 70 0 39 3 70 8 70 4
0 6 -31 4 -70 -3 -64 -2 -70 16 -70 21 0 42 42 42 83 0 16 -3 17 -15 7 -12
-10 -15 -10 -15 4 0 9 7 16 16 16 53 0 204 117 204 158 0 8 12 28 28 46 25 29
31 31 87 28 70 -4 122 9 153 38 31 29 29 54 -3 46 -24 -6 -35 7 -15 19 18 11
11 31 -15 43 -37 17 -41 52 -11 110 31 62 34 80 4 32 -57 -94 -116 -182 -167
-250 -31 -41 -59 -79 -63 -85 -5 -7 -14 -6 -28 3 -18 11 -25 7 -67 -37 -36
-37 -62 -53 -105 -67 -56 -17 -60 -17 -115 0 -42 13 -69 31 -104 67 -44 45
-50 48 -69 37 -14 -9 -23 -10 -28 -3 -4 6 -32 44 -62 85 -52 69 -151 218 -178
265 -6 11 -12 15 -12 9z"/>
<path d="M153 470 c-13 -5 -23 -15 -23 -22 0 -7 -15 -20 -33 -28 -39 -18 -46
-49 -19 -93 16 -27 17 -35 5 -45 -28 -27 19 -242 53 -242 17 0 18 12 3 27 -6
6 -10 16 -7 23 2 7 20 -1 46 -19 23 -17 51 -31 61 -31 18 0 21 8 24 72 l3 73
2 -72 c2 -70 3 -73 26 -73 22 0 23 3 19 44 -7 61 -1 81 52 161 45 70 55 110
33 134 -11 11 -10 13 2 9 12 -4 15 -21 13 -79 -1 -54 1 -66 7 -44 4 17 14 44
21 62 18 43 3 87 -31 91 -14 2 -39 17 -58 33 -30 26 -39 29 -105 28 -40 0 -82
-4 -94 -9z m178 -49 c21 -22 29 -39 29 -66 0 -51 -44 -95 -95 -95 -51 0 -95
44 -95 95 0 27 8 44 29 66 22 21 39 29 66 29 27 0 44 -8 66 -29z"/>
</g>
</svg>
