<?xml version="1.0" standalone="no"?>
<!DOCTYPE svg PUBLIC "-//W3C//DTD SVG 20010904//EN"
 "http://www.w3.org/TR/2001/REC-SVG-20010904/DTD/svg10.dtd">
<svg version="1.0" xmlns="http://www.w3.org/2000/svg"
 width="860.000000pt" height="848.000000pt" viewBox="0 0 860.000000 848.000000"
 preserveAspectRatio="xMidYMid meet">
<metadata>
Created by potrace 1.15, written by Peter Selinger 2001-2017
</metadata>
<g transform="translate(0.000000,848.000000) scale(0.100000,-0.100000)"
fill="#000000" stroke="none">
<path d="M4085 8064 c-361 -36 -638 -95 -946 -200 -313 -107 -575 -237 -864
-429 -1311 -870 -1950 -2428 -1630 -3980 32 -152 87 -345 150 -520 151 -416
199 -665 199 -1030 0 -234 -14 -358 -65 -560 -82 -326 -261 -652 -488 -887
-25 -27 -42 -48 -39 -48 3 0 53 11 110 24 303 72 839 171 1160 215 559 78
1034 91 1278 35 36 -8 134 -37 219 -65 440 -142 767 -194 1226 -193 299 0 445
12 701 59 1126 208 2108 924 2661 1940 594 1094 613 2440 48 3550 -247 488
-595 915 -1025 1262 -128 103 -405 289 -555 371 -408 223 -857 369 -1355 438
-110 15 -681 28 -785 18z m760 -1565 c480 -41 918 -243 1250 -574 293 -292
483 -661 556 -1075 22 -124 36 -417 21 -438 -10 -15 -21 -16 -188 -14 l-131 2
-6 158 c-3 86 -13 198 -21 247 -78 434 -326 820 -696 1080 -261 183 -558 277
-915 290 l-140 4 -3 160 c-2 159 -2 160 20 164 43 8 133 7 253 -4z m-70 -615
c316 -51 608 -200 839 -429 125 -123 214 -245 294 -405 113 -225 159 -402 169
-647 4 -116 3 -156 -7 -168 -10 -12 -40 -15 -165 -15 l-152 0 -6 153 c-5 159
-20 248 -63 375 -81 242 -269 479 -502 633 -186 122 -394 185 -649 196 l-133
6 0 158 0 158 53 4 c77 6 220 -2 322 -19z m-1828 -174 c214 -74 389 -291 492
-613 62 -194 63 -315 3 -440 -35 -73 -65 -106 -192 -209 -148 -120 -218 -222
-240 -347 -37 -210 103 -439 517 -849 261 -258 435 -386 577 -427 93 -27 223
-18 308 22 77 36 208 155 268 243 75 110 169 171 294 192 51 9 84 7 166 -7
248 -41 461 -146 621 -305 119 -118 170 -245 172 -429 1 -88 -1 -102 -29 -161
-110 -233 -403 -449 -775 -571 -353 -116 -603 -105 -979 41 -419 164 -1017
573 -1316 900 -270 295 -542 685 -689 986 -197 402 -253 698 -190 992 75 345
213 620 410 818 74 75 105 98 175 132 47 23 108 45 135 51 72 15 200 5 272
-19z m1555 -435 c247 -43 458 -155 633 -337 147 -152 240 -312 290 -501 29
-107 45 -260 37 -354 l-4 -63 -162 0 -161 0 -1 113 c-3 266 -108 483 -312 648
-148 119 -324 179 -529 179 l-103 0 0 159 c0 158 0 160 23 164 52 10 211 6
289 -8z"/>
</g>
</svg>
