<?xml version="1.0" standalone="no"?>
<!DOCTYPE svg PUBLIC "-//W3C//DTD SVG 20010904//EN"
 "http://www.w3.org/TR/2001/REC-SVG-20010904/DTD/svg10.dtd">
<svg version="1.0" xmlns="http://www.w3.org/2000/svg"
 width="260.000000pt" height="194.000000pt" viewBox="0 0 260.000000 194.000000"
 preserveAspectRatio="xMidYMid meet">
<metadata>
Created by potrace 1.15, written by Peter Selinger 2001-2017
</metadata>
<g transform="translate(0.000000,194.000000) scale(0.100000,-0.100000)"
fill="#000000" stroke="none">
<path d="M841 1758 c-40 -41 -61 -94 -46 -118 7 -11 53 -6 113 12 33 10 36 16
32 78 -5 81 -38 90 -99 28z"/>
<path d="M1028 1776 c-10 -7 -25 -37 -35 -66 -12 -37 -34 -70 -75 -114 -60
-63 -69 -89 -36 -110 13 -8 30 -4 73 17 l55 27 -16 -38 c-25 -56 -27 -69 -20
-107 14 -74 110 -144 179 -131 36 7 87 40 87 57 0 5 -19 9 -42 9 -24 0 -61 9
-83 19 -38 17 -105 81 -105 101 0 4 -3 17 -6 27 -3 10 4 2 17 -17 56 -86 118
-120 216 -120 70 0 81 6 89 48 10 55 39 107 79 139 31 26 34 33 26 54 -13 36
-76 98 -115 114 -36 15 -131 18 -176 6 -16 -4 -34 -24 -50 -54 -14 -26 -33
-55 -44 -64 -11 -11 -8 -2 9 24 20 31 28 57 30 102 2 34 -1 59 -5 56 -5 -3
-11 4 -15 15 -7 23 -14 24 -37 6z m338 -195 c8 -69 -56 -141 -123 -141 -69 0
-143 44 -143 85 l0 22 53 -18 c28 -10 63 -18 75 -19 26 0 82 29 82 43 0 11 44
65 49 61 2 -2 6 -17 7 -33z"/>
<path d="M1705 1749 c-65 -34 -111 -87 -129 -145 -6 -20 -2 -22 56 -28 35 -4
81 -15 103 -25 55 -25 113 -91 121 -139 10 -61 17 -69 51 -47 92 60 125 196
73 300 -20 41 -35 55 -79 78 -68 34 -139 36 -196 6z"/>
<path d="M1570 1552 c-14 -2 -54 -17 -90 -33 -52 -24 -72 -40 -99 -79 -18 -27
-30 -53 -26 -59 3 -6 1 -11 -4 -11 -13 0 -15 -52 -3 -65 5 -6 16 -31 26 -57
19 -52 63 -91 135 -119 25 -10 39 -18 31 -19 -13 0 -13 -1 0 -10 18 -12 70
-13 70 -2 0 4 23 13 50 18 41 9 50 8 50 -4 0 -7 6 -12 13 -9 6 2 11 12 10 22
0 9 14 30 32 47 35 30 72 109 60 127 -3 6 -2 11 3 11 11 0 -11 108 -28 140
-34 63 -148 113 -230 102z m165 -220 c-8 -41 -49 -80 -91 -88 -84 -16 -194 44
-194 106 0 28 2 30 27 24 15 -4 42 -16 61 -27 18 -11 44 -19 58 -19 29 0 94
32 94 47 0 5 5 3 10 -5 8 -12 10 -12 10 5 0 18 1 18 16 3 11 -11 14 -25 9 -46z"/>
<path d="M2369 1504 c-51 -15 -132 -81 -155 -126 -22 -43 -19 -118 6 -168 21
-41 22 -42 58 -33 20 4 71 8 112 8 76 0 81 -2 146 -50 9 -6 21 -2 39 15 24 23
25 27 25 159 l0 136 -33 22 c-63 43 -134 56 -198 37z"/>
<path d="M304 1282 c-51 -21 -71 -38 -90 -75 -24 -44 -20 -99 10 -148 14 -24
26 -40 26 -35 0 5 6 3 14 -3 10 -9 22 -4 50 18 36 29 36 30 14 36 -33 10 -58
35 -58 57 0 14 5 18 18 14 10 -3 36 -7 59 -8 34 -1 49 5 78 30 49 44 60 41 58
-15 -1 -17 8 -16 34 2 l22 15 -22 41 c-44 82 -122 108 -213 71z"/>
<path d="M81 1250 c-80 -19 -81 -20 -81 -151 l0 -118 30 -16 c41 -21 112 -19
165 6 25 12 45 23 45 26 0 3 -12 20 -28 37 -25 29 -30 30 -52 19 -30 -15 -84
-17 -111 -3 -28 15 -23 27 11 28 70 2 110 30 110 76 0 17 7 44 15 60 9 16 14
30 13 31 -10 8 -89 11 -117 5z"/>
<path d="M1055 1190 c6 -10 4 -12 -9 -7 -9 4 -38 1 -63 -6 -36 -9 -49 -18 -58
-41 -19 -44 2 -60 71 -57 62 2 215 -17 228 -29 11 -11 53 9 61 29 3 8 1 17 -6
20 -6 2 -19 12 -27 22 -9 11 -20 19 -24 19 -5 0 -27 9 -51 20 -23 11 -56 21
-73 23 -17 2 -37 8 -44 12 -9 6 -11 4 -5 -5z"/>
<path d="M2320 1160 c-63 -8 -113 -35 -156 -82 -42 -47 -64 -94 -64 -138 0
-33 4 -35 66 -44 35 -5 42 -3 40 11 -1 13 13 20 64 29 36 6 72 14 80 18 17 7
54 61 64 94 4 13 13 21 19 19 18 -6 20 -82 3 -116 -32 -60 -123 -98 -177 -72
-24 11 -24 11 1 -6 14 -10 44 -38 68 -62 l42 -44 41 12 c75 22 149 122 149
198 0 21 -9 53 -20 71 -12 19 -15 30 -9 26 7 -4 4 4 -7 19 -22 30 -90 67 -131
71 -15 1 -48 0 -73 -4z"/>
<path d="M1740 1091 c-59 -18 -139 -63 -155 -87 -9 -15 -12 -24 -7 -20 6 3 12
2 14 -4 1 -5 29 -15 60 -22 75 -16 100 -3 128 68 29 70 21 83 -40 65z"/>
<path d="M635 1040 c-16 -4 -41 -13 -55 -20 -14 -8 -28 -14 -31 -13 -3 1 -28
-16 -54 -38 -27 -23 -62 -48 -79 -56 -16 -8 -41 -26 -54 -38 -22 -20 -23 -26
-13 -39 27 -32 154 -13 201 29 15 14 16 12 13 -22 -7 -73 -4 -145 6 -157 12
-15 82 -6 133 16 33 15 53 57 44 95 -24 103 -30 115 -57 111 -22 -3 -25 -1
-21 15 3 10 20 28 38 40 34 22 48 54 18 43 -8 -3 -13 -2 -10 3 13 21 -37 40
-79 31z"/>
<path d="M1010 1034 c-25 -11 -50 -14 -87 -9 -83 10 -122 -10 -63 -32 16 -6
38 -26 49 -44 11 -19 25 -40 31 -46 6 -7 7 -13 3 -13 -4 0 -8 -34 -9 -75 l-1
-75 31 -5 c51 -9 160 -25 176 -27 8 0 20 -4 25 -8 6 -4 35 -11 66 -14 47 -6
60 -3 80 13 l24 20 -21 21 c-23 23 -200 94 -214 85 -5 -3 -20 1 -33 10 -13 8
-27 13 -30 10 -4 -3 -2 1 3 8 7 7 40 12 86 13 82 1 154 26 154 53 -1 9 -35 39
-78 68 -88 60 -138 72 -192 47z"/>
<path d="M1885 987 c-34 -11 -81 -31 -52 -22 10 3 15 1 12 -5 -3 -6 -15 -10
-25 -10 -10 0 -39 -14 -64 -31 -25 -16 -54 -31 -65 -32 -11 0 -17 -5 -15 -9 3
-4 -8 -8 -24 -8 -25 0 -41 -8 -91 -47 -11 -8 46 -37 68 -34 13 1 28 -3 32 -11
6 -9 9 -9 9 -1 0 7 7 10 15 7 21 -8 115 14 145 34 14 9 28 17 31 17 8 0 31 25
57 62 21 30 31 100 13 89 -5 -4 -11 -3 -13 2 -1 4 -16 4 -33 -1z"/>
<path d="M820 884 c-11 -25 -20 -52 -20 -60 0 -8 -9 -39 -19 -69 -10 -29 -18
-55 -16 -57 2 -2 -16 -29 -39 -60 -24 -32 -45 -55 -48 -52 -3 2 -11 -9 -18
-26 -11 -25 -10 -33 0 -43 10 -10 12 -8 7 6 -4 11 -3 16 3 12 6 -3 10 -12 10
-19 0 -18 47 -12 69 8 10 9 21 13 24 10 4 -4 9 1 13 10 3 9 10 14 14 11 4 -3
16 8 25 23 10 15 24 31 31 35 21 12 57 137 59 204 1 34 -2 60 -7 57 -4 -3 -8
3 -8 13 0 24 -19 43 -42 43 -13 0 -25 -15 -38 -46z"/>
<path d="M2532 837 c-12 -19 -44 -44 -71 -57 -56 -26 -65 -48 -54 -137 l6 -55
39 6 c51 8 113 40 132 68 30 43 16 208 -18 208 -6 0 -21 -15 -34 -33z"/>
<path d="M1905 844 c-11 -9 -47 -29 -80 -46 -64 -33 -75 -43 -75 -71 0 -17 1
-17 28 1 36 26 68 32 63 12 -2 -8 -4 -22 -5 -30 -1 -9 -4 -20 -7 -25 -3 -6 -7
-30 -8 -55 -2 -25 -5 -48 -7 -52 -9 -14 8 -78 19 -71 5 3 7 1 3 -5 -3 -6 -2
-13 4 -17 5 -3 10 -12 10 -20 0 -16 72 -95 87 -95 6 0 13 -4 15 -10 2 -5 26
-14 54 -19 28 -5 55 -11 60 -12 19 -6 154 13 150 20 -3 4 10 15 29 24 19 9 35
22 35 27 0 6 4 9 9 5 5 -3 12 3 16 14 3 10 14 26 25 36 11 10 20 26 20 37 0
10 4 18 8 18 5 0 10 21 11 47 1 27 4 56 7 67 4 12 2 16 -5 12 -6 -4 -12 0 -12
8 -2 25 -4 30 -13 45 -7 11 -6 12 5 6 11 -7 12 -6 2 7 -7 8 -9 19 -5 24 4 5 3
5 -3 1 -6 -5 -14 5 -20 24 -16 46 -80 89 -137 92 -25 1 -44 5 -42 8 1 3 -47 6
-109 7 -89 2 -116 -1 -132 -14z m315 -114 c8 13 10 12 10 -3 0 -10 7 -25 15
-33 20 -21 19 -80 -4 -130 -39 -85 -116 -128 -191 -105 -22 7 -40 18 -40 26 0
8 -9 19 -20 25 -11 6 -18 15 -15 21 4 5 11 7 16 3 6 -3 13 4 16 15 5 19 11 21
46 18 33 -4 45 0 66 22 14 14 28 25 31 24 3 -1 6 10 6 23 1 13 -2 21 -8 18 -6
-4 -5 3 1 15 7 12 9 27 5 33 -4 7 -3 8 4 4 7 -4 14 3 18 19 6 24 7 24 20 8 12
-16 15 -16 24 -3z"/>
<path d="M1530 750 c-12 -8 -40 -68 -40 -87 0 -29 37 -81 69 -98 61 -31 141
-9 141 38 1 12 7 33 15 47 16 28 19 68 6 88 -6 10 -35 14 -96 15 -48 1 -90 0
-95 -3z"/>
<path d="M1766 690 c-19 -22 -38 -52 -42 -67 -3 -16 -7 -33 -9 -40 -13 -42 65
-163 106 -163 24 0 24 -3 -6 62 -29 62 -33 134 -10 198 18 50 18 50 6 50 -5 0
-25 -18 -45 -40z"/>
<path d="M168 703 c-17 -21 -32 -59 -48 -123 -15 -56 -57 -142 -76 -153 -8 -4
-14 -17 -14 -27 0 -17 7 -20 43 -20 35 0 49 6 74 33 42 42 80 128 88 197 6 47
4 59 -15 83 -25 32 -32 33 -52 10z"/>
<path d="M856 582 c-32 -46 -32 -47 -4 -49 12 -1 28 -9 37 -18 15 -14 12 -15
-28 -10 -25 3 -46 7 -49 9 -2 3 -31 -9 -65 -25 -34 -16 -68 -29 -74 -29 -19 0
-16 -31 10 -80 31 -61 65 -83 134 -88 51 -3 64 0 106 27 82 53 108 129 71 207
-17 35 -79 94 -100 94 -6 0 -23 -17 -38 -38z"/>
<path d="M1468 383 c-10 -2 -18 -9 -18 -14 0 -6 -4 -8 -9 -5 -5 3 -11 -1 -15
-9 -3 -8 -1 -15 5 -15 6 0 7 -6 3 -12 -5 -9 -2 -8 9 1 15 12 17 12 11 -4 -5
-12 -4 -16 3 -12 6 4 18 1 26 -7 8 -8 16 -13 19 -11 2 2 13 -12 23 -33 11 -20
24 -40 28 -43 12 -9 54 -173 50 -198 -3 -20 1 -21 61 -21 45 0 65 4 69 14 14
35 19 109 9 129 -6 12 -18 45 -28 72 -37 103 -164 190 -246 168z"/>
<path d="M13 353 c-10 -3 -13 -49 -13 -179 l0 -174 89 0 c85 0 91 1 110 26 11
15 28 51 38 81 14 46 15 61 5 101 -21 78 -70 127 -139 137 -15 2 -39 6 -53 9
-14 2 -31 2 -37 -1z"/>
<path d="M1361 332 c-1 -7 -5 -10 -11 -7 -5 3 -10 -1 -10 -10 0 -9 -4 -13 -10
-10 -14 9 -12 -8 3 -24 7 -8 7 -11 1 -8 -7 4 -18 -1 -25 -10 -10 -12 -10 -14
-1 -9 16 10 15 0 -4 -29 -17 -26 -24 -151 -11 -197 l7 -28 95 0 c84 0 95 2 96
18 0 9 3 30 5 46 7 42 -3 76 -23 76 -9 0 -14 3 -10 6 7 8 -3 18 -70 69 -55 40
-61 47 -42 43 16 -4 27 33 18 62 -4 14 -7 19 -8 12z"/>
<path d="M2180 313 c-32 -10 -68 -13 -126 -8 l-81 6 -12 -59 c-14 -62 -6 -113
26 -177 36 -71 46 -75 168 -75 108 0 112 1 137 28 59 61 58 178 -3 262 -32 43
-41 45 -109 23z"/>
<path d="M891 205 c-24 -7 -52 -23 -62 -34 -11 -12 -24 -21 -30 -21 -6 0 -7
-4 -4 -10 3 -5 2 -10 -4 -10 -13 0 -51 -82 -51 -109 0 -18 6 -21 50 -21 49 0
50 1 44 25 -3 14 -3 32 0 41 5 13 13 11 48 -13 86 -57 94 -59 146 -39 62 23
87 25 87 6 0 -10 13 -16 43 -18 47 -3 48 0 30 59 -31 107 -183 180 -297 144z"/>
</g>
</svg>
